<?xml version="1.0" encoding="utf-8"?>
<!-- Generator: Adobe Illustrator 22.1.0, SVG Export Plug-In . SVG Version: 6.00 Build 0)  -->
<svg version="1.1" id="圖層_1" xmlns="http://www.w3.org/2000/svg" xmlns:xlink="http://www.w3.org/1999/xlink" x="0px" y="0px"
	 viewBox="0 0 67 17" style="enable-background:new 0 0 67 17;" xml:space="preserve">
<style type="text/css">
	.st0{filter:url(#Adobe_OpacityMaskFilter);}
	.st1{fill:#FFFFFF;}
	.st2{mask:url(#b_1_);fill:#00B3E3;}
	.st3{fill:#505457;}
</style>
<g>
	<g transform="translate(0 .008)">
		<defs>
			<filter id="Adobe_OpacityMaskFilter" filterUnits="userSpaceOnUse" x="0" y="0.2" width="18.9" height="16.7">
				<feColorMatrix  type="matrix" values="1 0 0 0 0  0 1 0 0 0  0 0 1 0 0  0 0 0 1 0"/>
			</filter>
		</defs>
		<mask maskUnits="userSpaceOnUse" x="0" y="0.2" width="18.9" height="16.7" id="b_1_">
			<g class="st0">
				<path id="a_1_" class="st1" d="M0,0.2h18.9v16.7H0V0.2z"/>
			</g>
		</mask>
		<path class="st2" d="M12.8,14.1c-1.1,0.3-2.2,0.5-3.3,0.5c-1.2,0-2.3-0.2-3.3-0.5c-1.2-0.4-2-1.6-1.7-2.9C4.9,8.9,6,6.9,7.7,5.3
			c1-0.9,2.5-0.9,3.4,0c1.7,1.6,2.9,3.6,3.4,5.9C14.8,12.4,14.1,13.7,12.8,14.1z M11.8,0.8c-0.2-0.4-0.6-0.6-1.1-0.6H8.2
			c-0.4,0-0.8,0.2-1.1,0.6l-7,12.1c-0.2,0.4-0.2,0.8,0,1.2l1.2,2.1c0.2,0.4,0.6,0.6,1.1,0.6h14c0.4,0,0.8-0.2,1.1-0.6l1.2-2.1
			c0.2-0.4,0.2-0.9,0-1.2L11.8,0.8L11.8,0.8z"/>
	</g>
	<path class="st3" d="M54.7,5l-4.2,8.3c-0.1,0.1-0.2,0.2-0.4,0.2h-1.4c-0.2,0-0.3-0.1-0.4-0.2L44.2,5c-0.1-0.1-0.1-0.3,0-0.4
		l0.5-0.8c0.1-0.2,0.3-0.2,0.4-0.2h0.4c0.1,0,0.2,0.1,0.3,0.2l3.6,7.1c0.1,0.1,0.2,0.1,0.3,0.1c0,0,0.1-0.1,0.1-0.1l3.6-7.1
		c0-0.1,0.1-0.2,0.3-0.2h0.4c0.2,0,0.3,0.1,0.4,0.2l0.5,0.8C54.8,4.7,54.8,4.9,54.7,5 M33.7,5l-4.2,8.3c-0.1,0.1-0.2,0.2-0.4,0.2
		h-1.4c-0.2,0-0.3-0.1-0.4-0.2L23.1,5c-0.1-0.1-0.1-0.3,0-0.4l0.5-0.8c0.1-0.2,0.2-0.2,0.4-0.2h0.4c0.1,0,0.2,0.1,0.3,0.2l3.6,7.1
		c0.1,0.1,0.2,0.1,0.3,0.1c0,0,0.1-0.1,0.1-0.1l3.6-7.1c0-0.1,0.1-0.2,0.3-0.2h0.4c0.2,0,0.3,0.1,0.4,0.2l0.5,0.8
		C33.8,4.7,33.8,4.9,33.7,5 M39.8,3.7c-0.1-0.1-0.2-0.1-0.3-0.1h-0.6c-0.2,0-0.3,0.1-0.4,0.2L38,4.6C38,4.7,38,4.8,38,4.8v8.3
		c0,0.2,0.2,0.4,0.4,0.4h1.2c0.2,0,0.4-0.2,0.4-0.4V4C39.9,3.9,39.9,3.8,39.8,3.7 M59.5,3.8c0.1-0.2,0.3-0.2,0.4-0.2H66
		c0.2,0,0.3,0.1,0.4,0.2l0.4,0.7c0.1,0.1,0.1,0.2,0.1,0.3v0.2c0,0.2-0.1,0.3-0.3,0.3h-5.5c-0.1,0-0.2,0.1-0.2,0.2v1.9
		c0,0.1,0.1,0.2,0.2,0.2h3.8c0.2,0,0.3,0.2,0.3,0.3v1.1c0,0.2-0.2,0.3-0.3,0.3h-3.8c-0.1,0-0.2,0.1-0.2,0.2v2c0,0.1,0.1,0.2,0.2,0.2
		h5.5c0.2,0,0.3,0.1,0.3,0.3v0.2c0,0.1,0,0.2-0.1,0.3l-0.4,0.7c-0.1,0.1-0.2,0.2-0.4,0.2h-6.1c-0.2,0-0.3-0.1-0.4-0.2l-0.4-0.7
		C59,12.5,59,12.4,59,12.3V4.9c0-0.1,0-0.2,0.1-0.3L59.5,3.8L59.5,3.8z"/>
</g>
</svg>
