<svg xmlns="http://www.w3.org/2000/svg" xmlns:xlink="http://www.w3.org/1999/xlink" width="67" height="17" viewBox="0 0 67 17">
    <defs>
        <path id="a" d="M0 .188h18.941v16.669H0z"/>
    </defs>
    <g fill="none" fill-rule="evenodd" opacity=".7">
        <g transform="translate(0 .008)">
            <mask id="b" fill="#fff">
                <use xlink:href="#a"/>
            </mask>
            <path fill="#FFF" d="M12.817 14.077c-1.057.333-2.18.511-3.348.511-1.165 0-2.289-.178-3.345-.51-1.236-.388-1.999-1.637-1.733-2.9a11.052 11.052 0 0 1 3.356-5.87 2.548 2.548 0 0 1 3.445 0 11.05 11.05 0 0 1 3.357 5.868c.266 1.264-.497 2.513-1.732 2.901zM11.758.803A1.234 1.234 0 0 0 10.69.188H8.25c-.441 0-.848.235-1.069.615L.165 12.909c-.22.38-.22.849 0 1.229l1.219 2.104c.22.38.628.615 1.068.615h14.035c.441 0 .848-.235 1.069-.615l1.22-2.104c.22-.38.22-.85 0-1.23L11.757.803z" mask="url(#b)"/>
        </g>
        <path fill="#FFF" d="M54.747 5.049l-4.24 8.313a.4.4 0 0 1-.36.217H48.75a.405.405 0 0 1-.358-.217l-4.239-8.313a.464.464 0 0 1 .01-.44l.454-.78a.492.492 0 0 1 .426-.245h.41a.28.28 0 0 1 .253.156l3.564 7.064a.202.202 0 0 0 .361 0l3.562-7.064a.28.28 0 0 1 .255-.156h.408c.176 0 .339.093.426.244l.455.783c.077.135.082.3.011.438M33.745 5.049l-4.241 8.313a.4.4 0 0 1-.359.217h-1.398a.405.405 0 0 1-.358-.217l-4.24-8.313a.464.464 0 0 1 .011-.44l.454-.782a.489.489 0 0 1 .424-.243h.412a.28.28 0 0 1 .253.156l3.564 7.064a.202.202 0 0 0 .361 0L32.19 3.74a.28.28 0 0 1 .255-.156h.41a.49.49 0 0 1 .424.243l.454.784c.078.135.083.3.012.438M39.819 3.702a.407.407 0 0 0-.288-.118h-.635a.49.49 0 0 0-.424.244l-.452.782a.462.462 0 0 0-.062.23v8.335c0 .223.182.405.407.405h1.17c.223 0 .404-.18.404-.402V3.99a.407.407 0 0 0-.12-.288M59.476 3.827a.492.492 0 0 1 .425-.244h6.072c.172 0 .33.091.416.24l.428.732c.06.105.093.224.093.345v.183c0 .15-.123.274-.276.274h-5.536a.204.204 0 0 0-.203.202v1.914c0 .111.09.201.202.201h3.753c.182.003.33.15.33.332v1.1c0 .182-.15.332-.333.332h-3.75a.202.202 0 0 0-.202.201v1.965c0 .112.09.202.202.202h5.537c.153 0 .276.121.276.272v.184a.692.692 0 0 1-.093.346l-.428.734a.481.481 0 0 1-.416.24H59.9a.492.492 0 0 1-.425-.244l-.423-.727a.691.691 0 0 1-.093-.348V4.9c0-.121.033-.24.093-.346l.423-.727z"/>
    </g>
</svg>
