<?xml version="1.0" encoding="utf-8"?>
<!-- Generator: Adobe Illustrator 22.0.1, SVG Export Plug-In . SVG Version: 6.00 Build 0)  -->
<svg version="1.1" id="圖層_1" xmlns="http://www.w3.org/2000/svg" xmlns:xlink="http://www.w3.org/1999/xlink" x="0px" y="0px"
	 viewBox="0 0 25 25" style="enable-background:new 0 0 25 25;" xml:space="preserve">
<style type="text/css">
	.st0{fill:#4A4A4A;}
</style>
<path class="st0" d="M17.3,8.5c0,2.5-2.1,4.5-4.7,4.5s-4.7-2-4.7-4.5C7.8,6,9.9,4,12.5,4C15.1,4,17.3,6,17.3,8.5L17.3,8.5z
	 M16.2,8.5c0-1.9-1.7-3.5-3.7-3.5c-2.1,0-3.7,1.6-3.7,3.5c0,1.9,1.7,3.5,3.7,3.5C14.6,11.9,16.2,10.4,16.2,8.5z M12.7,13.3
	c3.8,0,8.3,1.8,8.3,4.4L21,20.1l-17,0l0.1-2.4C4.1,15.1,8.8,13.3,12.7,13.3z M20,17.7c0-1.8-4-3.4-7.3-3.4c-3.4,0-7.6,1.6-7.6,3.4
	l0,1.4l15,0L20,17.7z"/>
</svg>
