<?xml version="1.0" encoding="utf-8"?>
<!-- Generator: Adobe Illustrator 22.0.1, SVG Export Plug-In . SVG Version: 6.00 Build 0)  -->
<svg version="1.1" id="圖層_1" xmlns="http://www.w3.org/2000/svg" xmlns:xlink="http://www.w3.org/1999/xlink" x="0px" y="0px"
	 viewBox="0 0 25 25" style="enable-background:new 0 0 25 25;" xml:space="preserve">
<style type="text/css">
	.st0{fill:#4A4A4A;}
</style>
<path class="st0" d="M8.2,14.3c0.2,0.2,0.6,0.2,0.8,0l3.9-3.9l3.9,3.9c0.2,0.2,0.6,0.2,0.8,0c0,0,0,0,0,0c0.2-0.2,0.2-0.6,0-0.8
	l-4.3-4.3c-0.2-0.2-0.6-0.2-0.8,0c0,0,0,0,0,0c0,0,0,0,0,0.1c0,0-0.1,0-0.1,0l-4.2,4.2C7.9,13.7,7.9,14.1,8.2,14.3"/>
</svg>
