<?xml version="1.0" encoding="utf-8"?>
<!-- Generator: Adobe Illustrator 22.1.0, SVG Export Plug-In . SVG Version: 6.00 Build 0)  -->
<svg version="1.1" id="圖層_1" xmlns="http://www.w3.org/2000/svg" xmlns:xlink="http://www.w3.org/1999/xlink" x="0px" y="0px"
	 viewBox="0 0 25 25" style="enable-background:new 0 0 25 25;" xml:space="preserve">
<style type="text/css">
	.st0{fill:#4A4A4A;}
</style>
<path class="st0" d="M17.6,19.9c0.3,0,0.6-0.2,0.6-0.5l0.9-10.6c0-0.3-0.2-0.6-0.5-0.6l0,0h-12C6.3,8.2,6,8.5,6,8.8l0,0l0.9,10.6
	c0,0.3,0.3,0.5,0.6,0.5H17.6z M9.1,7.2L9.1,7.2V5.3C9.1,4.6,9.8,4,10.6,4h3.7c0.8,0,1.5,0.6,1.5,1.3v1.8v0.1h2.6
	c0.9,0,1.6,0.8,1.5,1.6L19,19.4c-0.1,0.8-0.7,1.4-1.5,1.4H7.4c-0.8,0-1.4-0.6-1.5-1.4L5,8.9C4.9,8,5.6,7.3,6.4,7.2h0.1H9.1L9.1,7.2z
	 M10,7.2h5V7.1V5.3c0-0.2-0.3-0.4-0.6-0.4h-3.7c-0.3,0-0.6,0.2-0.6,0.4L10,7.2C10,7.1,10,7.2,10,7.2z"/>
</svg>
