<?xml version="1.0" encoding="utf-8"?>
<!-- Generator: Adobe Illustrator 22.1.0, SVG Export Plug-In . SVG Version: 6.00 Build 0)  -->
<svg version="1.1" id="圖層_1" xmlns="http://www.w3.org/2000/svg" xmlns:xlink="http://www.w3.org/1999/xlink" x="0px" y="0px"
	 viewBox="0 0 25 25" style="enable-background:new 0 0 25 25;" xml:space="preserve">
<style type="text/css">
	.st0{filter:url(#Adobe_OpacityMaskFilter);}
	.st1{fill:#FFFFFF;}
	.st2{mask:url(#b_1_);fill:#4A4A4A;}
</style>
<defs>
	<filter id="Adobe_OpacityMaskFilter" filterUnits="userSpaceOnUse" x="3" y="5" width="20" height="15">
		<feColorMatrix  type="matrix" values="1 0 0 0 0  0 1 0 0 0  0 0 1 0 0  0 0 0 1 0"/>
	</filter>
</defs>
<mask maskUnits="userSpaceOnUse" x="3" y="5" width="20" height="15" id="b_1_">
	<g class="st0">
		<path id="a_1_" class="st1" d="M3,5h20v15H3V5z"/>
	</g>
</mask>
<path class="st2" d="M14.8,9.4H8.4c-0.3,0-0.5,0.2-0.5,0.5c0,0.3,0.2,0.5,0.5,0.5h6.4c0.3,0,0.5-0.2,0.5-0.5
	C15.3,9.6,15.1,9.4,14.8,9.4C14.8,9.4,14.8,9.4,14.8,9.4L14.8,9.4z M14.8,7h-3.1c-0.3,0-0.5,0.2-0.5,0.5c0,0,0,0,0,0
	c0,0.3,0.2,0.5,0.5,0.5h3.1c0.3,0,0.5-0.2,0.5-0.5C15.3,7.2,15.1,7,14.8,7C14.8,7,14.8,7,14.8,7z M14.8,11.8h-9
	c-0.3,0-0.5,0.2-0.5,0.5c0,0.3,0.2,0.5,0.5,0.5h9c0.3,0,0.5-0.2,0.5-0.5C15.3,12,15.1,11.7,14.8,11.8C14.8,11.7,14.8,11.7,14.8,11.8
	L14.8,11.8z M22,16.3h-1.2c-0.3-1.4-1.5-2.4-3-2.4c-1.4,0-2.7,1-3,2.4h-3.9c-0.3-1.4-1.5-2.4-3-2.4c-1.4,0-2.7,1-3,2.4H4.1v-9
	C4.1,6.6,4.6,6,5.3,6h11.6v6.7c0,0.3,0.2,0.5,0.5,0.5H22L22,16.3L22,16.3z M17.7,19c-1.1,0-2.1-0.9-2.1-2c0,0,0-0.1,0-0.1
	c0.1-1.1,1-1.9,2-1.9c1.1,0,2,0.8,2,1.9c0,0,0,0.1,0,0.1C19.8,18.1,18.8,19,17.7,19z M7.7,19c-1.1,0-2.1-0.9-2.1-2c0,0,0-0.1,0-0.1
	c0.1-1.1,1-1.9,2-1.9s2,0.8,2,1.9v0c0,0,0,0.1,0,0.1C9.8,18.1,8.9,19,7.7,19z M17.9,9.5h1.6l2.1,2.7h-3.7
	C17.9,12.3,17.9,9.5,17.9,9.5z M22.9,12.2l-2.7-3.5c-0.1-0.1-0.3-0.2-0.4-0.2h-1.9v-3c0-0.3-0.2-0.5-0.5-0.5c0,0,0,0,0,0H5.3
	C4,5,3,6,3,7.3v9.6c0,0.3,0.2,0.5,0.5,0.5h1.1C4.8,18.8,6.1,20,7.7,20c1.6,0,2.9-1.2,3.1-2.7h3.8c0.2,1.5,1.5,2.7,3.1,2.7
	c1.6,0,2.9-1.2,3.1-2.7h1.7c0.3,0,0.5-0.2,0.5-0.5v-4.3C23,12.4,23,12.2,22.9,12.2L22.9,12.2z"/>
</svg>
