<?xml version="1.0" encoding="utf-8"?>
<!-- Generator: Adobe Illustrator 22.1.0, SVG Export Plug-In . SVG Version: 6.00 Build 0)  -->
<svg version="1.1" id="圖層_1" xmlns="http://www.w3.org/2000/svg" xmlns:xlink="http://www.w3.org/1999/xlink" x="0px" y="0px"
	 viewBox="0 0 25 25" style="enable-background:new 0 0 25 25;" xml:space="preserve">
<style type="text/css">
	.st0{fill:#4A4A4A;}
</style>
<path class="st0" d="M5.2,15.8l0,3.6l3.6,0l8-7.9l-3.6-3.6L5.2,15.8L5.2,15.8z M6.1,18.4l0-2.3l7-7l2.3,2.3l-7,7L6.1,18.4z M19,7.2
	c0.6,0.6,0.6,1.5,0,2l-1.4,1.4L13.9,7l1.4-1.4c0.3-0.3,0.6-0.4,1-0.4h0c0.4,0,0.8,0.2,1,0.4C17.4,5.6,19,7.2,19,7.2z"/>
</svg>
