<?xml version="1.0" encoding="utf-8"?>
<!-- Generator: Adobe Illustrator 22.1.0, SVG Export Plug-In . SVG Version: 6.00 Build 0)  -->
<svg version="1.1" id="圖層_1" xmlns="http://www.w3.org/2000/svg" xmlns:xlink="http://www.w3.org/1999/xlink" x="0px" y="0px"
	 viewBox="0 0 25 25" style="enable-background:new 0 0 25 25;" xml:space="preserve">
<style type="text/css">
	.st0{fill:#4A4A4A;}
	.st1{filter:url(#Adobe_OpacityMaskFilter);}
	.st2{fill:#FFFFFF;}
	.st3{mask:url(#b_1_);fill:#4A4A4A;}
</style>
<path class="st0" d="M19.3,12.9v1.1h-1.5v-1.1C16.9,12.6,16.1,12,16,11h1.1c0.1,0.6,0.5,1,1.5,1c1.1,0,1.3-0.5,1.3-0.9
	c0-0.5-0.2-0.9-1.5-1.2c-1.4-0.3-2.3-0.9-2.3-2c0-0.9,0.8-1.6,1.7-1.8V5.1h1.5v1.1c1,0.2,1.5,1,1.6,1.9h-1.1c0-0.6-0.4-1-1.2-1
	c-0.8,0-1.3,0.4-1.3,0.9c0,0.5,0.4,0.8,1.5,1.1c1.1,0.3,2.3,0.8,2.3,2.2C21,12.1,20.2,12.7,19.3,12.9 M18.5,4c-3,0-5.5,2.5-5.5,5.5
	c0,3,2.5,5.5,5.5,5.5S24,12.5,24,9.5S21.5,4,18.5,4"/>
<defs>
	<filter id="Adobe_OpacityMaskFilter" filterUnits="userSpaceOnUse" x="2" y="11.2" width="21.8" height="10.8">
		<feColorMatrix  type="matrix" values="1 0 0 0 0  0 1 0 0 0  0 0 1 0 0  0 0 0 1 0"/>
	</filter>
</defs>
<mask maskUnits="userSpaceOnUse" x="2" y="11.2" width="21.8" height="10.8" id="b_1_">
	<g class="st1">
		<path id="a_1_" class="st2" d="M2,11.2h21.8V22H2V11.2z"/>
	</g>
</mask>
<path class="st3" d="M22.4,19.2c-1.1,0.8-2.5,1.1-3.8,1.4c-2,0.4-3.5,0.5-4.7,0.2c-1.2-0.3-2.2-1-3.3-1.7L10,18.7
	c-1-0.6-1.9-0.9-2.7-1v-4.4c0.8-0.3,2-0.5,3-0.2c0.6,0.2,1.2,0.6,1.8,1.1c0.1,0.1,0.2,0.2,0.4,0.3c1,0.7,2,1.4,3.1,2
	c0.3,0.2,0.6,0.4,0.9,0.6c0.3,0.2,0.6,0.5,0.8,0.7c-0.7,0.1-1.4,0.2-2.1-0.1c-0.6-0.2-1.1-0.5-1.7-0.9c-0.3-0.2-0.5-0.3-0.8-0.5
	c-0.3-0.2-0.6-0.1-0.8,0.2c-0.2,0.3-0.1,0.6,0.2,0.7c0,0,0,0,0,0c0.3,0.1,0.5,0.3,0.8,0.5c0.6,0.4,1.2,0.8,1.9,1
	c1.6,0.6,3,0.1,4.4-0.4l0.5-0.2c1-0.3,1.8-0.4,2.4-0.2c0.4,0.1,0.7,0.4,0.7,0.7C22.7,18.7,22.7,18.9,22.4,19.2L22.4,19.2z M6.1,18.1
	c0,0.5-0.4,0.8-0.8,0.8H4c-0.5,0-0.8-0.4-0.8-0.8v-5c0-0.5,0.4-0.8,0.8-0.8h1.3c0.5,0,0.8,0.4,0.8,0.8L6.1,18.1L6.1,18.1z
	 M23.8,18.5c-0.1-0.7-0.7-1.3-1.5-1.6c-1.1-0.4-2.3-0.1-3.1,0.2l-0.5,0.2c-0.2,0.1-0.3,0.1-0.5,0.2c-0.3-0.6-0.9-1.1-1.3-1.3
	c-0.3-0.2-0.6-0.4-0.9-0.6c-1-0.6-2-1.2-3-1.9c-0.1-0.1-0.2-0.2-0.4-0.3c-0.6-0.5-1.3-1-2.1-1.3C9.3,11.7,8,11.9,7,12.2
	c-0.3-0.6-1-1-1.7-1H4c-1.1,0-2,0.9-2,1.9v5C2,19.2,2.9,20,4,20h1.3c0.8,0,1.5-0.5,1.8-1.2c0,0,0,0,0,0c0.7,0,1.4,0.3,2.3,0.8L10,20
	c1.1,0.7,2.3,1.4,3.6,1.8c0.6,0.1,1.2,0.2,2,0.2c0.9,0,2-0.1,3.2-0.4c1.5-0.3,3-0.7,4.3-1.6C23.6,19.6,23.9,19.1,23.8,18.5
	L23.8,18.5z"/>
</svg>
