<?xml version="1.0" encoding="utf-8"?>
<!-- Generator: Adobe Illustrator 22.1.0, SVG Export Plug-In . SVG Version: 6.00 Build 0)  -->
<svg version="1.1" id="圖層_1" xmlns="http://www.w3.org/2000/svg" xmlns:xlink="http://www.w3.org/1999/xlink" x="0px" y="0px"
	 viewBox="0 0 25 25" style="enable-background:new 0 0 25 25;" xml:space="preserve">
<style type="text/css">
	.st0{fill:#4A4A4A;}
</style>
<path class="st0" d="M14.1,11.3H19V10h-4.8V11.3z M17.9,19.7c0,0.2-0.1,0.3-0.3,0.3c0,0,0,0,0,0h-3.4v-7.9h3.7V19.7z M8,19.7v-7.5
	h3.7v7.9H8.3C8.1,20.1,8,19.9,8,19.7C8,19.7,8,19.7,8,19.7z M6.9,11.3h4.8V10H6.9C6.9,10,6.9,11.3,6.9,11.3z M8.8,7.7
	C8.4,7.3,8.3,6.7,8.6,6.3C8.8,6.1,9,5.9,9.3,5.9c0.2,0,0.4,0.1,0.6,0.2c0.3,0.2,0.8,1.2,1.4,2.3C10.1,8.2,9,7.9,8.8,7.7z M16,6.1
	c0.2-0.1,0.4-0.2,0.6-0.2c0.3,0,0.6,0.1,0.7,0.4c0.3,0.4,0.2,1-0.2,1.4c-0.3,0.2-1.3,0.5-2.5,0.8C15.2,7.3,15.7,6.4,16,6.1z
	 M19.3,9.1H16c0.7-0.2,1.3-0.4,1.6-0.6c0.8-0.6,1-1.8,0.4-2.7c-0.1-0.1-0.2-0.2-0.3-0.3c0,0-0.1-0.1-0.1-0.1
	c-0.1-0.1-0.1-0.1-0.2-0.1c0,0-0.1,0-0.1-0.1C17,5.1,16.8,5,16.6,5c-0.1,0-0.1,0-0.2,0c0,0-0.1,0-0.1,0c-0.2,0-0.4,0.1-0.5,0.1
	c0,0-0.1,0-0.1,0c-0.1,0.1-0.2,0.1-0.3,0.2c-0.4,0.3-0.9,1.2-1.4,2.1c-0.1-0.2-0.3-0.3-0.5-0.3h-1.2c-0.2,0-0.4,0.1-0.5,0.3
	c-0.5-0.9-1-1.8-1.4-2.1C10.1,5.1,9.7,5,9.3,5C8.8,5,8.2,5.3,7.9,5.7c-0.6,0.8-0.5,2,0.4,2.7c0.3,0.2,0.9,0.4,1.6,0.6H6.6
	C6.3,9.1,6,9.3,6,9.7v1.9c0,0.3,0.3,0.6,0.6,0.6h0.5v7.5c0,0.7,0.5,1.3,1.2,1.3h9.2c0.7,0,1.2-0.6,1.2-1.3v-7.5h0.5
	c0.3,0,0.6-0.3,0.6-0.6V9.7C19.9,9.3,19.6,9.1,19.3,9.1z"/>
</svg>
