<?xml version="1.0" encoding="utf-8"?>
<!-- Generator: Adobe Illustrator 22.1.0, SVG Export Plug-In . SVG Version: 6.00 Build 0)  -->
<svg version="1.1" id="圖層_1" xmlns="http://www.w3.org/2000/svg" xmlns:xlink="http://www.w3.org/1999/xlink" x="0px" y="0px"
	 viewBox="0 0 25 25" style="enable-background:new 0 0 25 25;" xml:space="preserve">
<style type="text/css">
	.st0{fill:#4A4A4A;}
</style>
<path class="st0" d="M14.7,7.5c-2.2-2.2-5.7-2.3-8-0.1s-2.3,5.7-0.1,8l0.1,0.1c2.2,2.2,5.8,2.1,8-0.1C16.8,13.1,16.8,9.7,14.7,7.5z
	 M15.8,15.8l4.1,4.1c0.2,0.2,0.2,0.5,0,0.7s-0.5,0.2-0.7,0l-4.2-4c-2.8,2.4-7,2.1-9.4-0.8s-2.1-7,0.8-9.4s7-2.1,9.4,0.8
	C17.9,9.6,17.9,13.3,15.8,15.8z"/>
</svg>
