<?xml version="1.0" encoding="utf-8"?>
<!-- Generator: Adobe Illustrator 22.1.0, SVG Export Plug-In . SVG Version: 6.00 Build 0)  -->
<svg version="1.1" id="圖層_1" xmlns="http://www.w3.org/2000/svg" xmlns:xlink="http://www.w3.org/1999/xlink" x="0px" y="0px"
	 viewBox="0 0 25 25" style="enable-background:new 0 0 25 25;" xml:space="preserve">
<style type="text/css">
	.st0{fill:#4A4A4A;}
</style>
<path class="st0" d="M14.7,7.5c-2.2-2.2-5.7-2.3-8-0.1s-2.3,5.7-0.1,8c0,0,0.1,0.1,0.1,0.1c2.2,2.2,5.8,2.1,8-0.1
	C16.8,13.1,16.8,9.7,14.7,7.5z M15.8,15.8l4.1,4.1c0.2,0.2,0.2,0.5,0,0.7c-0.2,0.2-0.5,0.2-0.7,0L15,16.6c-2.8,2.4-7,2.1-9.4-0.8
	s-2.1-7,0.8-9.4s7-2.1,9.4,0.8C17.9,9.6,17.9,13.3,15.8,15.8z"/>
<path class="st0" d="M12.5,11H11V9.5C11,9.2,10.8,9,10.5,9S10,9.2,10,9.5V11H8.5C8.2,11,8,11.2,8,11.5S8.2,12,8.5,12H10v1.5
	c0,0.3,0.2,0.5,0.5,0.5s0.5-0.2,0.5-0.5V12h1.5c0.3,0,0.5-0.2,0.5-0.5S12.8,11,12.5,11z"/>
</svg>
