<?xml version="1.0" encoding="utf-8"?>
<!-- Generator: Adobe Illustrator 22.1.0, SVG Export Plug-In . SVG Version: 6.00 Build 0)  -->
<svg version="1.1" id="圖層_1" xmlns="http://www.w3.org/2000/svg" xmlns:xlink="http://www.w3.org/1999/xlink" x="0px" y="0px"
	 viewBox="0 0 25 25" style="enable-background:new 0 0 25 25;" xml:space="preserve">
<style type="text/css">
	.st0{fill:#4A4A4A;}
</style>
<path class="st0" d="M8.8,8.4c-0.2,0-0.4,0.2-0.4,0.4c0,0,0,0,0,0l0.4,8.4c0,0.2,0.2,0.4,0.4,0.4l0,0c0.2,0,0.4-0.2,0.4-0.4
	c0,0,0,0,0,0L9.2,8.7C9.2,8.5,9,8.3,8.8,8.4 M12,8.4c-0.2,0-0.4,0.2-0.4,0.4c0,0,0,0,0,0v8.4c0,0.2,0.2,0.4,0.4,0.4s0.4-0.2,0.4-0.4
	V8.8C12.4,8.5,12.2,8.4,12,8.4C12,8.4,12,8.4,12,8.4 M15.2,8.4c-0.2,0-0.4,0.2-0.4,0.4l-0.4,8.4c0,0.2,0.2,0.4,0.4,0.4l0,0
	c0.2,0,0.4-0.2,0.4-0.4l0.4-8.4C15.6,8.6,15.4,8.4,15.2,8.4"/>
<path class="st0" d="M16.8,19.6c0,0.2-0.2,0.4-0.4,0.4H7.6c-0.2,0-0.4-0.2-0.4-0.4L6.4,6.8c0-0.2,0.2-0.4,0.4-0.5c0,0,0,0,0,0h10.3
	c0.2,0,0.4,0.2,0.4,0.4c0,0,0,0,0,0C17.5,6.8,16.8,19.6,16.8,19.6z M9.9,4.3c0,0,0.1,0,0.1,0l4,0c0.1,0,0.1,0,0.1,0.1l0.7,1.1
	l-5.8,0C9.1,5.5,9.9,4.3,9.9,4.3z M19.6,5.5l-3.7,0l-1.1-1.7l-0.1-0.1c-0.2-0.2-0.5-0.3-0.7-0.3l-4,0c-0.3,0-0.5,0.1-0.7,0.3
	L8.1,5.5l-3.7,0C4.2,5.5,4,5.7,4,5.9c0,0.2,0.2,0.4,0.4,0.4l0,0l1.3,0C5.7,6.5,5.6,6.7,5.6,6.8l0.7,12.8c0,0.7,0.6,1.2,1.2,1.2h8.8
	c0.6,0,1.2-0.5,1.2-1.2l0.7-12.8c0-0.2,0-0.4-0.1-0.6l1.4,0c0.2,0,0.4-0.2,0.4-0.4C20,5.7,19.8,5.5,19.6,5.5L19.6,5.5z"/>
</svg>
